{"title":"Blue Montain State 1x06[HDTV + AC3 + Spanish] mkv","uid":5587542,"size":398927199,"categoryP":"video","categoryS":"hd___tv_shows","magnet":"?xt=urn:btih:821c1c7b56522021445d85883d4fd9fac4d766df&amp;dn=Blue+Montain+State+1x06%5BHDTV+%2B+AC3+%2B+Spanish%5D+mkv&amp;tr=udp%3A%2F%2Ftracker.openbittorrent.com%3A80&amp;tr=udp%3A%2F%2Fopen.demonii.com%3A1337&amp;tr=udp%3A%2F%2Ftracker.coppersurfer.tk%3A6969&amp;tr=udp%3A%2F%2Fexodus.desync.com%3A6969","seeders":0,"leechers":0,"uploader":"fleqii","files":1,"time":1274750563,"description":"C:UsersJoelContactsBlue Montain State 1x06[ AC3 + Spanish].mkv\n   General\n      Complete name : C:UsersJoelContactsBlue Montain State 1x06[ AC3 + \n\nSpanish].mkv\n      Format : Matroska\n      File size : 380 MiB\n      Duration : 21mn 43s\n      Overall bit rate : 2 449 Kbps\n      Encoded date : UTC 2010-05-24 22:32:19\n      Writing application : VirtualDubMod 1.5.10.2 (build 2540/release)\n      Writing library : libebml-0.7.5 &amp; libmatroska-0.7.7\n   Video #1\n      ID : 1\n      Format : MPEG-4 Visual\n      Format profile : AdvancedSimple@L5\n      Format settings, BVOP : No\n      Format settings, QPel : No\n      Format settings, GMC : No warppoints\n      Format settings, Matrix : Default (H.263)\n      Codec ID : XVID\n      Codec ID/Hint : XviD\n      Duration : 21mn 42s\n      Bit rate : 1 952 Kbps\n      Width : 704 pixels\n      Height : 396 pixels\n      Display aspect ratio : 16:9\n      Frame rate : 23.976 fps\n      Resolution : 24 bits\n      Colorimetry : 4:2:0\n      Scan type : Progressive\n      Bits/(Pixel*Frame) : 0.292\n      Stream size : 303 MiB (80%)\n      Writing library : XviD 1.2.1 (UTC 2008-12-04)\n   Audio #2\n      ID : 2\n      Format : AC-3\n      Format/Info : Audio Coding 3\n      Codec ID : A_AC3\n      Duration : 21mn 43s\n      Bit rate mode : Constant\n      Bit rate : 448 Kbps\n      Channel(s) : 2 channels\n      Channel positions : L R\n      Sampling rate : 48.0 KHz\n      Stream size : 69.6 MiB (18%)","torrent":{"xt":"urn:btih:821c1c7b56522021445d85883d4fd9fac4d766df","amp;dn":"Blue+Montain+State+1x06%5BHDTV+%2B+AC3+%2B+Spanish%5D+mkv","amp;tr":["udp%3A%2F%2Ftracker.openbittorrent.com%3A80","udp%3A%2F%2Fopen.demonii.com%3A1337","udp%3A%2F%2Ftracker.coppersurfer.tk%3A6969","udp%3A%2F%2Fexodus.desync.com%3A6969"],"infoHash":"821c1c7b56522021445d85883d4fd9fac4d766df","infoHashBuffer":{"type":"Buffer","data":[130,28,28,123,86,82,32,33,68,93,133,136,61,79,217,250,196,215,102,223]},"announce":[],"urlList":[]}}